<?xml version="1.0" encoding="utf-8"?>
<!-- Generator: Adobe Illustrator 24.3.0, SVG Export Plug-In . SVG Version: 6.00 Build 0)  -->
<svg version="1.1" id="Layer_1" xmlns="http://www.w3.org/2000/svg" xmlns:xlink="http://www.w3.org/1999/xlink" x="0px" y="0px"
	 viewBox="0 0 612 792" style="enable-background:new 0 0 612 792;" xml:space="preserve">
<style type="text/css">
	.st0{fill:rgb(40,42,45,0);}
</style>
<g id="HkeESS.tif">
	<g>
		<g>
			<path class="st0" d="M467.77,557.77c-107.9,0-215.71,0-323.54,0c0-107.83,0-215.67,0-323.54c107.83,0,215.69,0,323.54,0
				C467.77,342.05,467.77,449.9,467.77,557.77z M306.06,234.61c-89.41,0.19-161.56,72.43-161.42,161.62
				c0.14,89.3,72.6,161.57,161.73,161.32c89.2-0.25,161.29-72.49,161.19-161.51C467.46,306.76,395.1,234.43,306.06,234.61z"/>
			<path d="M306.06,234.61c89.04-0.19,161.4,72.14,161.5,161.43c0.1,89.03-71.99,161.26-161.19,161.51
				c-89.13,0.25-161.59-72.02-161.73-161.32C144.5,307.04,216.65,234.8,306.06,234.61z M306.06,529.75
				c74.17,0.13,134.45-60.07,134.61-134.44c0.16-74.18-60.06-134.56-134.35-134.71c-74.23-0.15-134.63,60.03-134.78,134.28
				C171.39,469.32,231.53,529.61,306.06,529.75z"/>
			<path class="st0" d="M306.06,529.75c-74.53-0.13-134.67-60.43-134.53-134.87c0.15-74.25,60.55-134.43,134.78-134.28
				c74.29,0.15,134.51,60.53,134.35,134.71C440.51,469.68,380.23,529.88,306.06,529.75z M306.13,431.08
				c19.63,0.09,35.7-15.96,35.86-35.82c0.15-19.64-15.91-35.83-35.69-35.96c-19.82-0.13-36,15.91-36.09,35.8
				C270.12,414.88,286.19,430.99,306.13,431.08z"/>
			<path d="M306.13,431.08c-19.94-0.09-36.02-16.2-35.93-35.98c0.09-19.88,16.27-35.93,36.09-35.8
				c19.78,0.13,35.85,16.32,35.69,35.96C341.84,415.12,325.77,431.17,306.13,431.08z"/>
		</g>
	</g>
</g>
</svg>
